<?xml version="1.0"?>
<svg width="870.0000000000001" height="400" xmlns="http://www.w3.org/2000/svg" xmlns:svg="http://www.w3.org/2000/svg" xmlns:xlink="http://www.w3.org/1999/xlink" enable-background="new 0 0 1024 1024" version="1.1" xml:space="preserve">
 <g class="layer">
  <title>Layer 1</title>
  <path d="m674.67,245.95c0,0 0.38,0.01 0.77,0.35c2.57,0.99 4.75,1.67 6.94,2.26c6.52,1.78 6.52,1.77 6.72,9.59c0,0 -0.02,-0.11 -0.22,0.04c-0.34,0.75 -0.49,1.35 -0.63,1.96c0,0 -0.01,-0.1 -0.22,-0.01c-0.4,1 -0.59,1.92 -0.78,2.83c-13.76,26.05 -27.43,52.17 -41.36,78.09c-4.9,9.11 -10.49,17.72 -16.33,26.77c-0.85,1 -1.13,1.8 -1.41,2.6c0,0 -0.21,-0.42 -0.42,-0.23c-0.42,0.79 -0.62,1.38 -0.84,1.97c0,0 -0.03,-0.1 -0.32,-0.09c-0.72,1.12 -1.17,2.23 -1.61,3.34c0,0 -0.11,0.25 -0.5,0.12c-2.92,-0.01 -3.01,1.66 -2.23,3.87c0,0 -0.08,-0.01 -0.46,-0.02c-6.2,2.42 -8.4,-1.29 -8.58,-8.2c-0.28,-10.22 -0.46,-20.45 -1.06,-30.65c-0.17,-2.88 -1.63,-5.66 -2.51,-8.49c-0.27,-0.04 -0.49,-0.2 -0.71,-1.04c-0.72,-1.26 -1.54,-2.67 -2.01,-2.53c-2.67,0.84 -5.29,1.95 -7.88,3.15c-14.82,6.88 -29.58,13.93 -44.45,20.67c-5.65,2.57 -11.51,4.47 -17.53,6.7c-0.65,0.33 -1.05,0.65 -1.44,0.96c0,0 -0.34,0.11 -0.85,0.08c-1.47,0.36 -2.43,0.74 -3.39,1.13c0,0 0,-0.1 -0.32,-0.13c-1.03,-0.01 -1.76,-0.14 -2.45,0.01c-13.54,3.12 -27.05,6.41 -40.62,9.35c-6.57,1.42 -13.22,2.33 -19.86,3.25c-4.76,0.66 -9.57,0.94 -14.71,1.44c-5.14,0.38 -9.92,0.9 -14.72,1.02c-14.15,0.35 -28.32,1.13 -42.46,0.61c-12.37,-0.46 -24.7,-2.44 -37.28,-4.03c-2.96,-0.97 -5.68,-1.73 -8.42,-2.35c-12.5,-2.86 -25.13,-5.08 -37.48,-8.7c-11.27,-3.31 -22.36,-7.69 -33.27,-12.4c-9.67,-4.18 -18.97,-9.52 -28.48,-14.25c-2.95,-1.46 -6.02,-2.59 -9.03,-3.87c0,0 0.09,-0.03 -0.02,-0.27c-0.63,-0.41 -1.14,-0.58 -1.66,-0.76c0,0 0.09,-0.03 -0.03,-0.26c-0.61,-0.42 -1.11,-0.6 -1.61,-0.79c0,0 0.04,-0.04 0.02,-0.37c-1.47,-1.07 -2.91,-1.82 -4.34,-2.57c0,0 0.07,-0.04 0.06,-0.33c-1.11,-0.8 -2.22,-1.31 -3.32,-1.82c-6.76,-5.35 -13.51,-10.7 -20.5,-16.62c-0.53,-0.76 -0.84,-0.93 -1.14,-1.11c0,0 0.19,0 0.1,-0.23c-0.59,-0.47 -1.1,-0.71 -1.6,-0.95c-0.29,0.02 -0.52,-0.11 -0.76,-0.97c-0.72,-0.96 -1.37,-1.33 -2.02,-1.7c0,0 0.11,-0.1 0.08,-0.34c-0.35,-0.31 -0.66,-0.39 -0.97,-0.47c0,0 -0.05,-0.06 -0.02,-0.37c-0.45,-0.58 -0.94,-0.84 -1.42,-1.11c0,0 0.07,-0.02 -0.03,-0.24c-0.36,-0.39 -0.64,-0.56 -0.91,-0.73c0,0 0.1,-0.01 0.11,-0.32c-1.53,-1.6 -3.06,-2.89 -4.59,-4.19c0,0 0.03,-0.09 0.06,-0.42c-0.28,-0.38 -0.58,-0.45 -0.88,-0.51c0,0 -0.07,-0.1 -0.04,-0.45c-0.45,-0.62 -0.94,-0.89 -1.43,-1.16c-0.49,-0.45 -0.97,-0.9 -1.53,-2c-0.38,-3.86 -0.69,-7.06 -1,-10.27c0,0 0.05,0.12 0.36,0.14c3.37,0.44 6.43,0.83 9.49,1.27c1.08,0.16 2.15,0.44 3.22,0.66c0,0 -0.09,0.03 -0.02,0.31c0.89,0.77 1.71,1.25 2.53,1.74c0,0 -0.09,0.02 0.04,0.26c0.64,0.4 1.16,0.56 1.67,0.73c0,0 -0.09,0.02 0.02,0.3c0.62,0.82 1.08,1.52 1.7,1.85c10.76,5.72 21.46,11.62 32.35,16.97c4.04,1.98 8.54,2.66 12.83,3.93c0,0 0.37,0.02 0.61,0.45c6.06,2.41 11.82,4.61 17.69,6.31c12.19,3.52 24.24,7.91 37.18,8.6c4.23,0.86 8.22,1.61 12.23,2c13.42,1.3 26.85,3.28 40.3,3.48c15.68,0.24 31.38,-0.92 47.06,-1.89c6.53,-0.41 13.01,-1.9 19.8,-2.89c0.66,0 1.03,0 1.7,-0.05c0.5,-0.57 0.72,-1.09 0.94,-1.61c0,0 0.12,0 0.43,0.22c0.51,0.29 0.71,0.36 1.24,0.45c3.18,-0.33 6.06,-0.42 8.86,-1.05c8.31,-1.87 16.59,-3.96 25.19,-5.92c3.25,-0.65 6.22,-1.14 9.1,-2.05c10.83,-3.44 21.65,-6.93 32.43,-10.57c6.72,-2.27 13.48,-4.49 20.03,-7.36c11.24,-4.94 22.37,-10.23 33.44,-15.67c3.6,-1.77 6.87,-4.47 10.29,-6.75c2.39,-1.5 4.78,-3 7.57,-4.41c0.5,-0.15 0.61,-0.4 0.72,-0.64c0,0 0.09,0.14 0.3,0.09c0.42,-0.62 0.62,-1.19 0.84,-1.77c0,0 0.03,0.06 0.31,0.01c1.94,-2.75 1.41,-4.68 -1.22,-5.87c0,0 0.08,-0.02 0.07,-0.35c-0.61,-1.1 -1.21,-1.86 -1.82,-2.61c0,0 0.09,-0.04 0.09,-0.37c-0.86,-1.45 -1.73,-2.56 -2.6,-3.67c0,0 0.08,-0.03 0.06,-0.36c-0.61,-1.09 -1.22,-1.84 -1.82,-2.59c0,0 0.09,-0.04 0.07,-0.33c-0.4,-0.68 -0.79,-1.07 -1.18,-1.45c0,0 0.14,-0.09 0.18,-0.37c-0.5,-0.81 -1.05,-1.35 -1.59,-1.88c0,0 0.09,-0.03 0.09,-0.37c-0.89,-1.43 -1.77,-2.52 -2.66,-3.61c0,0 0.09,-0.03 0.09,-0.37c-0.88,-1.43 -1.77,-2.53 -2.66,-3.62c0,0 0.09,-0.04 0.07,-0.34c-0.43,-0.58 -0.84,-0.87 -1.24,-1.15c0,0 0.03,-0.09 0.08,-0.43c-0.26,-0.49 -0.55,-0.64 -0.85,-0.79c0,0 0.23,0 0.24,-0.42c-0.26,-3.67 -0.53,-6.91 -0.8,-10.15c0,0 0.03,0.1 0.21,0c0.34,-0.4 0.5,-0.72 0.66,-1.03c0,0 0.01,0.1 0.31,0.13c7.34,1.26 14.38,2.47 21.4,3.73c9.6,1.73 19.19,3.5 28.77,5.25c0,0 -0.08,0.02 -0.05,0.32c1.13,0.46 2.22,0.63 3.56,1.07c5.2,1.42 10.16,2.55 15.44,3.85c6.12,1.04 11.93,1.91 17.74,2.79c0,0 0.35,-0.01 0.67,0.37c3.12,0.8 5.91,1.22 8.69,1.63c0,0 0.36,0 0.74,0.33c1.42,0.44 2.47,0.56 3.52,0.67c0,0 0.35,0 0.74,0.33c1.72,0.44 3.04,0.56 4.36,0.68l-0.01,0z" fill="red" id="svg_2" stroke="#f2e8e8" stroke-linejoin="round"/>
  <path d="m206.98,233.03c-3.93,-3.79 -7.86,-7.58 -11.7,-11.86c-0.52,-0.93 -1.14,-1.37 -1.75,-1.81c0,0 0.14,-0.08 0.2,-0.38c-0.62,-0.81 -1.3,-1.32 -1.97,-1.83c0,0 0.14,-0.06 0.05,-0.26c-0.41,-0.41 -0.74,-0.62 -1.06,-0.82c-0.86,-0.77 -1.72,-1.54 -2.8,-2.93c-2.3,-1.22 -4.39,-2.39 -6.46,-2.34c-6.75,0.16 -13.48,1.07 -20.23,1.12c-7.08,0.05 -14.17,-0.56 -21.47,-1.17c-4.17,-1.26 -8.11,-2.23 -12.06,-3.2c0,0 -0.1,0.01 -0.14,-0.36c-0.95,-0.6 -1.86,-0.83 -2.76,-1.07c0,0 0.09,-0.04 0.08,-0.36c-2.34,-1.46 -4.67,-2.58 -7,-3.71c0,0 0.06,-0.05 0.03,-0.36c-1.02,-0.77 -2.01,-1.22 -2.99,-1.66c0,0 0.04,-0.03 -0.08,-0.24c-0.42,-0.39 -0.71,-0.56 -1.01,-0.74c0,0 0.1,-0.01 -0.01,-0.22c-0.43,-0.38 -0.75,-0.55 -1.07,-0.73c0,0 0.12,-0.01 0.11,-0.32c-0.77,-0.68 -1.52,-1.05 -2.27,-1.42c0,0 0.12,-0.1 0.08,-0.34c-0.41,-0.36 -0.78,-0.49 -1.15,-0.62c0,0 0.15,-0.08 0.12,-0.33c-0.4,-0.35 -0.77,-0.46 -1.14,-0.57c0.17,-0.06 0.33,-0.12 0.29,-0.42c-0.57,-0.35 -0.93,-0.46 -1.29,-0.57c0,0 0.27,0.03 0.18,-0.32c-0.45,-0.5 -0.81,-0.65 -1.17,-0.8c0,0 0.12,-0.1 0.11,-0.34c-0.35,-0.42 -0.7,-0.6 -1.05,-0.78c0,0 0.15,-0.02 0.18,-0.33c-0.64,-0.8 -1.31,-1.31 -1.98,-1.81c0,0 0.1,-0.04 0.1,-0.36c-1,-1.44 -2.02,-2.57 -3.03,-3.7c0,0 0.09,-0.02 0.09,-0.37c-1.71,-3.44 -3.42,-6.54 -5.13,-9.64c0,0 0.1,0 0.11,-0.38c-0.2,-1.66 -0.33,-2.98 -0.67,-4.24c-3.33,-12.36 -4.4,-24.8 -3.48,-37.67c1.11,-15.56 4.92,-30.26 10.56,-44.64c0.34,-0.87 -0.13,-2.06 -0.22,-3.1c0.69,-1.58 1.37,-3.16 2.64,-5.05c0.76,-0.92 0.94,-1.53 1.12,-2.14c0,0 0.03,0.1 0.27,-0.03c0.41,-0.74 0.58,-1.35 0.75,-1.95c0,0 0.03,0.08 0.32,-0.02c2.08,-3.4 3.87,-6.7 5.66,-10c0,0 0.03,0.09 0.25,-0.02c0.35,-0.47 0.47,-0.83 0.59,-1.18c0,0 0.03,0.19 0.28,0.1c0.45,-0.7 0.67,-1.3 0.88,-1.9c0,0 0.05,0.1 0.37,0.06c0.58,-0.79 0.85,-1.56 1.11,-2.33c0,0 0.1,0.02 0.43,0.02c0.58,-0.6 0.83,-1.19 1.07,-1.77c0,0 0.04,0.1 0.36,0.07c0.62,-0.79 0.91,-1.56 1.2,-2.33c0,0 -0.01,0.07 0.36,0.05c0.63,-0.62 0.89,-1.22 1.14,-1.82c-0.01,-0.31 0.11,-0.57 0.93,-0.82c1.56,-1.52 2.54,-2.99 3.52,-4.46c0,0 0.11,-0.02 0.46,0.03c0.93,-0.88 1.51,-1.81 2.09,-2.75c1.78,-1.87 3.55,-3.74 5.97,-5.74c1,-0.61 1.35,-1.09 1.71,-1.56c0,0 -0.01,0.38 0.34,0.33c1.23,-1.06 2.1,-2.07 2.97,-3.07c0.01,-0.34 0.17,-0.58 1.06,-0.77c1.7,-1.08 2.82,-2.11 3.93,-3.13c0,0 0.03,0.09 0.33,0.08c0.69,-0.47 1.09,-0.93 1.49,-1.38c0,0 0.08,0.18 0.28,0.16c0.44,-0.32 0.67,-0.61 0.9,-0.91c0,0 0.01,0.1 0.34,0.13c1.1,-0.69 1.86,-1.41 2.63,-2.12c0,0 0.03,0.1 0.36,0.12c1.12,-0.67 1.91,-1.35 2.7,-2.03c0,0 0.02,0.08 0.31,0.05c0.75,-0.41 1.21,-0.79 1.67,-1.17c0,0 0.01,0.12 0.35,0.14c3.83,-1.33 7.23,-2.95 10.8,-3.99c7.56,-2.19 15.14,-4.42 22.85,-6c8.19,-1.68 16.56,-3.83 24.79,-3.61c10.88,0.28 21.8,2.24 31.79,7.38c1.39,0.72 3.12,0.79 4.69,1.16c0,0 -0.1,0.04 -0.09,0.35c2.03,1.43 4.04,2.56 6.05,3.69c0,0 -0.09,0.04 -0.06,0.35c0.78,0.68 1.53,1.03 2.29,1.39c0,0 -0.12,0.09 -0.07,0.33c0.41,0.32 0.78,0.41 1.14,0.5c0,0 0.1,0.07 0.02,0.25c0.13,0.19 0.34,0.21 0.54,0.22c9.73,7.99 14.89,18.69 18.18,30.51c0.33,1.21 0.56,2.45 0.66,4.31c0.55,4.16 1.29,7.69 2.03,11.21c0,0 0.15,0.42 0.14,1.12c0.23,19.44 -2.77,37.57 -10.11,54.92c-1.12,2.65 -1.69,5.54 -2.51,8.31c0,0 0.04,-0.13 -0.33,-0.05c-0.78,1.4 -1.19,2.72 -1.61,4.05c0,0 0.02,0.04 -0.35,0.04c-1.22,1.95 -2.08,3.9 -2.94,5.86c0,0 -0.04,-0.14 -0.28,-0.01c-0.43,0.72 -0.62,1.32 -0.81,1.92c0,0 -0.04,-0.08 -0.36,-0.05c-0.75,1.06 -1.17,2.08 -1.59,3.11c0,0 -0.03,-0.1 -0.35,-0.08c-0.94,1.43 -1.56,2.86 -2.18,4.28c0,0 -0.18,-0.09 -0.47,-0.03c-0.51,0.65 -0.74,1.26 -0.96,1.86c0,0 -0.04,-0.12 -0.26,-0.02c-0.33,0.48 -0.43,0.85 -0.53,1.22c0,0 0.08,0.01 -0.12,-0.04c-0.33,-0.05 -0.47,-0.03 -0.61,-0.02c0.13,0.22 0.26,0.43 0.39,0.65c-7.87,8.5 -15.44,17.31 -23.72,25.39c-5.27,5.13 -6.09,6.52 -1.56,12.35c6.94,8.93 14.04,17.73 20.96,27.09c0.48,0.97 1.07,1.46 1.66,1.94c0,0 -0.19,0.08 -0.14,0.28c0.36,0.41 0.68,0.64 1,0.86c0,0 -0.14,0 -0.17,0.38c-0.15,6.54 -1.18,7.81 -7.8,7.63c-11.53,-0.32 -23.06,-1.06 -34.58,-1.62c0,0 0.14,0.05 0.08,-0.24c-1.3,-0.87 -2.54,-1.45 -3.79,-2.04m3.36,-76.3c0.17,-0.33 0.35,-0.65 0.55,-0.85c0,0 -0.12,-0.04 0.62,-0.02c0.36,-0.75 0.73,-1.51 1.18,-2.13c0,0 -0.16,-0.02 0.52,-0.1c0.25,-0.6 0.49,-1.19 0.81,-2.23c0.12,-0.31 0.35,-0.48 1.26,-0.71c0.15,-0.36 0.29,-0.72 0.43,-0.88c0,0 -0.18,-0.1 0.5,-0.19c0.22,-0.6 0.44,-1.21 0.69,-1.7c0,0 -0.11,-0.01 0.44,-0.23c0.11,-0.36 0.22,-0.73 0.34,-0.92c0,0 -0.15,-0.09 0.61,-0.11c0.54,-1.26 1.09,-2.52 1.67,-3.7c0,0 -0.09,-0.03 0.63,-0.06c0.96,-1.28 2.13,-2.45 2.84,-3.85c6.19,-12.13 11.08,-24.89 12.22,-38.41c1,-11.89 2.37,-24.31 -4.57,-35.35c-0.78,-1.25 -2.15,-2.13 -3.15,-3.22c0,0 -0.04,0.09 0,-0.55c-0.33,-0.51 -0.66,-1.02 -1.02,-2.23c-1.78,-1.25 -3.56,-2.51 -5.36,-4.14c0,0 0.06,0.37 0.06,-0.32c-0.6,-0.24 -1.19,-0.48 -1.68,-0.74c0,0 -0.01,0.11 -0.23,-0.44c-0.36,-0.12 -0.73,-0.23 -0.91,-0.36c0,0 -0.09,0.16 -0.12,-0.59c-7.53,-7.45 -28.64,-5.97 -35.23,-0.37c-0.21,0.19 -0.23,0.61 -0.35,0.79c0,0 0.12,0.03 -0.55,-0.02c-0.49,0.38 -0.98,0.75 -1.47,1c0,0 0.12,0.04 -0.65,-0.04c-1.45,1.05 -2.9,2.1 -4.66,3.74c-6.48,6.71 -12.96,13.43 -20.21,20.24c-0.81,1.7 -1.63,3.41 -2.48,5.03c0,0 0.09,-0.01 -0.44,0.24c-0.07,0.37 -0.14,0.73 -0.16,1.13c0,0 0.01,0.05 -0.74,-0.18c-1.05,2.67 -2.1,5.33 -3.12,8.16c0,0 -0.02,0.16 -0.75,0.04c-2.41,6.71 -5.39,13.28 -7.1,20.17c-3.57,14.41 -4.38,29.04 -0.64,43.59c0.62,2.42 2.63,4.49 3.91,6.74c0,0 0.05,-0.08 0.01,0.67c0.83,0.98 1.65,1.96 1.98,3.33c0.17,-0.13 0.34,-0.26 0.25,0.33c0.66,0.51 1.31,1.02 1.85,1.58c0,0 0.02,-0.13 0.16,0.43c0.31,0.2 0.63,0.4 0.83,0.61c0,0 0.03,-0.11 -0.02,0.56c0.97,0.52 1.93,1.03 3.59,1.71c3.12,1.36 6.23,2.73 9.57,4.85c9.62,2.61 18.66,0.59 27.4,-3.51c0.5,-0.24 0.6,-1.35 0.95,-2.04c0,0 0.01,0.07 0.58,0.18c0.26,-0.26 0.52,-0.53 0.77,-0.71c0,0 -0.08,-0.03 0.57,-0.04c0.47,-0.38 0.94,-0.75 1.41,-1.01c0,0 -0.12,-0.03 0.64,0.05c0.78,-0.7 1.56,-1.4 2.37,-2.01c0,0 -0.09,-0.04 0.67,0.02c0.75,-0.72 1.51,-1.44 2.3,-2.06c0,0 -0.1,-0.04 0.6,-0.01c0.31,-0.48 0.63,-0.96 0.99,-1.42c0,0 0.06,0.01 0.67,0.14c0.2,-0.33 0.4,-0.66 0.62,-0.84c0,0 -0.13,-0.07 0.59,0.05c0.5,-0.67 1,-1.34 1.53,-1.9c0,0 -0.12,-0.01 0.42,-0.19c0.2,-0.32 0.4,-0.64 0.81,-1.51c0.88,-0.76 1.76,-1.52 3.18,-2.49c0.2,-0.31 0.4,-0.63 0.61,-0.8c0,0 -0.14,-0.02 0.41,-0.2z" fill="red" id="svg_3" stroke="#f2e8e8" stroke-linejoin="round"/>
  <path d="m658.08,115.24c-0.45,0.55 -0.89,1.11 -1.95,1.74c-1.46,1.07 -2.3,2.04 -3.12,3.31c0.04,0.47 0.06,0.65 0.09,0.84c0,0 0.01,-0.09 -0.32,-0.05c-1.38,1.45 -2.71,2.73 -3.43,4.3c-6.89,14.91 -10.34,30.89 -14.43,46.68c-3.39,13.07 -7.36,25.99 -11.05,38.93c-12.53,0 -24.09,0 -35.84,0c2.26,-8.31 4.39,-16.4 6.68,-24.44c3.16,-11.1 6.45,-22.17 9.65,-33.27c0.86,-2.97 1.81,-5.94 2.33,-8.97c1.54,-8.94 3.04,-17.9 4.14,-26.9c0.16,-1.31 -1.9,-2.89 -2.94,-4.35c0,0 0.09,-0.03 0.05,-0.32c-0.52,-0.58 -1,-0.86 -1.48,-1.13c0,0 0.11,-0.14 0.11,-0.5c-5.11,-5.18 -14.8,-4.26 -19.01,1.45c0,0 -0.09,-0.02 -0.42,-0.1c-0.58,0.19 -0.83,0.48 -1.07,0.76c-8.16,5.77 -12.26,14.16 -15.74,23.64c-1.16,0.81 -2.03,1.25 -2.19,1.88c-3.03,11.33 -5.97,22.68 -8.95,34.01c-2.38,9.09 -4.8,18.16 -7.48,27.51c-2.56,12.75 -3.93,10.89 -12.39,10.74c-3.49,-0.06 -6.99,-0.12 -10.48,0.03c-4.62,0.21 -9.24,0.84 -13.85,0.81c-1.25,0 -3.7,-2.01 -3.55,-2.6c1.98,-8.32 4.22,-16.59 6.61,-24.81c3.1,-10.65 6.57,-21.2 9.54,-31.89c2.37,-8.54 4.13,-17.24 6.35,-25.81c3.71,-14.37 7.51,-28.72 11.5,-43.01c0.41,-1.45 2.33,-3.5 3.59,-3.53c10.7,-0.29 21.42,-0.17 31.13,-0.17c1.69,3.26 3.38,6.53 5.07,9.8c1.89,-2.04 3.78,-4.08 5.67,-6.11c0.02,-0.34 0.19,-0.58 1.08,-0.72c1.39,-0.34 2.21,-0.66 3.02,-1.26c-0.02,-0.46 -0.04,-0.65 -0.06,-0.83c0,0 0.01,0.08 0.37,0.07c1.01,-0.11 1.72,-0.07 2.29,-0.33c11.12,-5.02 22.61,-7.18 34.71,-4.61c3.99,0.84 7.95,1.86 11.92,2.79c0,0 -0.13,0.04 -0.05,0.31c0.82,0.6 1.56,0.93 2.3,1.26c0,0 -0.04,0.08 -0.06,0.42c0.33,0.44 0.69,0.54 1.05,0.63c0,0 0.08,0.1 -0.05,0.47c0.63,1.06 1.39,1.76 2.15,2.45c0,0 0.05,0.2 -0.14,0.64c0.25,0.92 0.68,1.41 1.11,1.9c1.06,1.87 0.65,5.88 5.24,3.35c0.6,0.05 0.74,0.05 0.88,0.05c-0.11,-0.25 -0.21,-0.5 -0.32,-0.75c0,0 0.15,-0.02 0.51,0.05c0.5,-0.31 0.63,-0.68 0.77,-1.04c0,0 0.11,0.11 0.36,0.1c0.4,-0.37 0.57,-0.73 0.73,-1.1c0,0 -0.07,0.15 0.27,0.19c1.2,-0.94 2.07,-1.92 2.94,-2.9c0,0 0.02,0.09 0.35,0.1c1.1,-0.7 1.86,-1.42 2.63,-2.14c0,0 0.02,0.1 0.35,0.12c1.34,-0.8 2.35,-1.63 3.36,-2.46c0,0 0.11,0.03 0.49,0.19c9.82,-3.5 19.5,-6.54 29.73,-5.53c6.5,0.63 12.87,2.49 19.3,3.8c0,0 -0.08,0.02 -0.06,0.33c1.13,1.02 2.25,1.74 3.37,2.45c0,0 -0.16,-0.05 -0.2,0.27c0.95,1.2 1.94,2.06 2.93,2.93c0,0 -0.09,0.01 -0.08,0.31c0.44,0.74 0.87,1.18 1.3,1.62c0,0 -0.17,-0.01 -0.22,0.35c0.9,5.81 2.83,11.31 2.56,16.71c-0.32,6.63 -2.32,13.22 -3.89,19.75c-0.98,4.1 -2.66,8.04 -3.75,12.12c-3.09,11.54 -6.21,23.08 -9,34.7c-1.88,7.87 -3.22,15.86 -4.8,23.8c0,0 0.02,-0.14 -0.28,-0.03c-1.2,2.34 -2.11,4.55 -3.17,6.85c-0.06,0.37 0.05,0.65 0.15,1.26c-0.01,0.76 -0.01,1.2 -0.29,1.77c-1.88,2.38 -0.35,6.86 -5.09,6.86c-11.46,0 -22.92,0 -33.72,0c0.85,-5.5 1.84,-11.88 2.83,-18.26c0,0 0.02,0.16 0.32,0.03c0.86,-2 1.42,-3.87 2.27,-5.98c3.41,-11.42 6.55,-22.59 9.74,-34.15c2.24,-8.64 4.79,-16.81 6.48,-25.16c0.82,-4.02 0.41,-8.42 -0.17,-12.55c-0.76,-5.35 -5.39,-7.52 -9.81,-7.58c-4.72,-0.06 -10.24,-0.23 -13.43,4.86c0,0 -0.03,-0.1 -0.37,-0.12c-1.46,1.04 -2.57,2.1 -3.67,3.17z" fill="red" id="svg_4" stroke="#f2e8e8" stroke-linejoin="round"/>
  <path d="m395,206.02c-2.29,-2.12 -4.57,-4.24 -6.78,-6.8c-0.18,-0.5 -0.42,-0.55 -0.67,-0.61c0,0 -0.03,-0.11 0.08,-0.52c-0.25,-1.28 -0.54,-2.21 -1,-3.05c-4.87,-8.75 -7.28,-18.17 -6.49,-28.11c1.17,-14.8 4.93,-28.95 12.32,-41.99c0.61,-1.08 0.43,-2.6 0.62,-3.91c9.68,-17.49 23.23,-30.99 41.71,-39.73c0.68,-0.07 0.91,-0.27 1.13,-0.47c0,0 0.01,0.09 0.38,0.11c2.3,-0.4 4.32,-0.58 6.15,-1.26c15.1,-5.58 30.34,-6.17 45.81,-1.68c2.3,0.67 4.69,1.02 7.04,1.51c0,0 0.08,-0.02 0.07,0.35c1.92,1.26 3.84,2.16 5.77,3.05c0,0 -0.09,0.05 -0.07,0.37c1.35,1.11 2.68,1.89 4.02,2.67c0,0 -0.07,0.03 0.05,0.24c0.41,0.39 0.7,0.57 1,0.76c0,0 -0.1,0.01 0.01,0.21c0.42,0.4 0.73,0.59 1.03,0.79c0.57,0.47 1.13,0.94 1.8,2.02c0.57,0.98 1.02,1.36 1.48,1.73c0,0 -0.14,0.04 -0.21,0.35c0.72,1.05 1.49,1.78 2.27,2.52c0,0 -0.04,0.12 -0.12,0.37c0.2,0.5 0.48,0.75 0.76,1c0,0 -0.09,0 -0.1,0.35c1.06,2.42 2.14,4.5 3.22,6.59c0,0 -0.13,0.02 -0.17,0.33c0.25,1.47 0.54,2.62 0.83,3.77c0,0 0.11,0.42 0.09,1.1c0.3,4.61 1.11,8.58 0.85,12.47c-0.83,12.22 -3.05,24.17 -7.87,35.54c-0.53,1.25 -0.36,2.8 -0.51,4.21c0,0 0.03,0.04 -0.33,0.08c-0.6,0.95 -0.84,1.86 -1.07,2.77c0,0 -0.03,-0.09 -0.25,0.03c-0.26,0.48 -0.3,0.84 -0.34,1.2c0,0 0.02,0.08 -0.35,0.04c-1.25,1.91 -2.12,3.85 -3,5.79c0,0 -0.03,-0.12 -0.33,-0.03c-1.11,1.72 -1.92,3.34 -2.74,4.96c0,0 -0.05,-0.09 -0.36,-0.06c-1.31,1.78 -2.31,3.54 -3.31,5.3c0,0 -0.1,-0.12 -0.37,-0.07c-0.51,0.65 -0.76,1.24 -1.01,1.83c0.03,0.33 -0.08,0.6 -0.94,0.89c-0.97,0.84 -1.34,1.6 -1.72,2.36c0,0 -0.1,-0.11 -0.34,-0.07c-0.34,0.4 -0.44,0.77 -0.54,1.14c0,0 -0.05,0.09 -0.22,0.01c-0.32,-0.09 -0.46,-0.09 -0.6,-0.09c0.14,0.21 0.27,0.42 0.4,0.64c-6.81,5.94 -13.61,11.88 -20.94,17.64c-1.2,0.5 -1.87,1.19 -2.54,1.88c0,0 -0.12,0.02 -0.53,-0.13c-3.27,1.5 -6.14,3.13 -9,4.77c0,0 -0.01,-0.1 -0.38,-0.12c-1.97,0.3 -3.62,0.46 -5.17,0.95c-11.49,3.61 -23.1,4.81 -34.95,2.07c-5.58,-1.29 -11.14,-2.66 -16.7,-4c0,0 0.08,-0.04 0.04,-0.37c-1.11,-0.66 -2.18,-0.98 -3.26,-1.3c0,0 0.25,-0.03 0.13,-0.36c-1.13,-0.76 -2.15,-1.18 -3.17,-1.61c0,0 -0.02,-0.26 0.04,-0.33c-0.18,-0.08 -0.42,-0.09 -0.65,-0.09m47.27,-92.7c0,0 0.17,0.03 -0.46,0.04c-0.18,0.35 -0.36,0.7 -0.54,0.89c0,0 0.12,0.1 -0.64,-0.04c-0.43,0.72 -0.86,1.45 -1.38,2.02c0,0 0.18,0.02 -0.47,0.12c-0.26,0.56 -0.51,1.13 -0.89,2.24c-0.52,0.5 -1.04,1 -2.15,1.72c-0.14,0.36 -0.29,0.73 -0.4,0.9c0,0 0.15,0.12 -0.54,0.18c-0.22,0.6 -0.44,1.2 -0.7,1.69c0,0 0.12,0.01 -0.59,0.2c-0.77,1.65 -1.55,3.3 -2.36,4.83c0,0 0.13,0.02 -0.58,0.18c-2.18,4.5 -5.07,8.81 -6.39,13.56c-1.93,6.92 -2.75,14.15 -4.02,21.26c-1.23,6.88 1.52,14.43 5.95,16.76c0,0 0.01,-0.12 0.17,0.44c0.33,0.19 0.65,0.37 0.81,0.59c0,0 0.01,-0.18 0.24,0.43c0.59,0.21 1.19,0.41 1.71,0.65c0,0 0,-0.08 0.2,0.42c0.31,0.18 0.62,0.36 0.79,0.55c0,0 0.01,-0.13 0.39,0.56c6.15,3.01 14.65,2.06 18.21,-2c0,0 0.04,0 0.79,0.31c1.18,-0.97 2.36,-1.94 3.56,-2.83c0,0 -0.07,-0.04 0.7,-0.03c0.74,-0.76 1.48,-1.53 2.4,-2.79c0.56,-0.41 1.11,-0.83 2.22,-1.44c0.2,-0.32 0.4,-0.65 0.6,-0.84c0,0 -0.12,-0.04 0.55,0c0.49,-0.62 0.97,-1.23 2.19,-1.97c0.4,-1.05 0.79,-2.09 1.23,-3.02c0,0 -0.12,-0.02 0.44,-0.23c0.08,-0.36 0.15,-0.72 0.15,-1c0,0 0.02,-0.12 0.78,-0.05c0.56,-1.25 1.12,-2.5 1.72,-3.67c0,0 -0.09,-0.03 0.63,-0.06c0.41,-0.25 1.02,-0.4 1.22,-0.77c6.76,-12.63 9.71,-26.39 10.8,-40.44c0.25,-3.2 -0.12,-8.48 -5.04,-10.16c0,0 -0.07,-0.07 0.04,-0.68c-0.34,-0.19 -0.67,-0.38 -0.86,-0.6c0,0 -0.07,0.12 0.05,-0.64c-0.75,-0.35 -1.5,-0.7 -2.04,-1.38c0,0 -0.25,0.29 -0.11,-0.35c-0.87,-0.32 -1.75,-0.63 -3.09,-0.9c-0.35,-0.04 -0.57,-0.23 -0.87,-1.37c-5.49,-3.06 -11,-2.08 -16.29,0.33c-1.98,0.91 -3.49,2.86 -5.27,4.23c0,0 0.11,0.03 -0.59,-0.03c-0.3,0.47 -0.61,0.95 -1.01,1.4c0,0 -0.09,0.06 -0.69,-0.12c-0.16,0.35 -0.31,0.7 -0.57,0.91z" fill="red" id="svg_5" stroke="#f2e8e8" stroke-linejoin="round"/>
  <path d="m763.92,90.75c0.46,-0.55 0.93,-1.1 2.02,-1.73c1.74,-1.12 2.84,-2.16 3.95,-3.2c0,0 0.03,0.1 0.33,0.09c0.63,-0.49 0.96,-0.97 1.29,-1.46c0,0 0.09,0.05 0.44,0.17c1.07,-0.64 1.79,-1.4 2.51,-2.16c0,0 0.1,0.02 0.48,0.15c2.24,-1.19 4.09,-2.5 5.94,-3.81c0,0 0.02,0.09 0.31,0.1c0.77,-0.37 1.25,-0.75 1.74,-1.13c0,0 0,0.13 0.32,0.15c0.97,-0.49 1.62,-1 2.27,-1.51c0,0 0.12,0.02 0.56,0.22c2.33,-0.27 4.25,-0.68 6.12,-1.23c14.94,-4.33 29.72,-5.33 44.22,1.73c1.11,0.54 2.52,0.5 3.78,0.72c0,0 -0.12,0.03 -0.03,0.31c1.06,0.77 2.02,1.26 2.98,1.75c0,0 -0.09,0.03 -0.08,0.36c1.13,0.98 2.24,1.64 3.35,2.29c0,0 -0.04,0.12 -0.06,0.38c0.34,0.43 0.7,0.59 1.06,0.76c0,0 -0.14,-0.01 -0.18,0.32c0.95,1.17 1.95,2.02 2.95,2.86c0,0 -0.1,0.03 -0.09,0.33c0.48,0.64 0.97,0.97 1.45,1.31c0,0 -0.05,0.09 -0.17,0.44c0.62,1.13 1.36,1.91 2.11,2.69c0,0 -0.02,0.1 -0.18,0.46c-0.11,1.01 -0.23,1.74 0.02,2.31c4.03,9.28 5.73,18.78 3.79,28.93c-1.17,6.12 -1.47,12.4 -2.42,18.87c-1.49,4.06 -1.52,8.71 -7.41,8.81c-12.28,0.22 -24.56,0.76 -36.85,0.93c-11.82,0.17 -23.65,-0.05 -35.47,0.11c-2.85,0.03 -6.73,-0.82 -6.82,4.13c0,0 -0.04,-0.13 -0.32,0.02c-2.14,6.18 -1.16,11.93 1.57,17.43c0.48,0.98 1.83,1.54 2.78,2.29c0.85,0.75 1.69,1.5 2.7,2.89c1.19,1.12 2.22,1.61 3.25,2.09c0,0 -0.08,0.05 -0.04,0.38c1.41,1.09 2.71,2.14 4.19,2.56c9.19,2.65 18.02,0.95 26.52,-2.83c2.22,-0.99 4.12,-2.71 6.17,-4.09c0,0 0.01,0.07 0.33,0.05c1.12,-0.36 1.91,-0.69 2.93,-1.13c0.39,-0.41 0.55,-0.72 0.7,-1.02c0,0 0,0.09 0.34,0.1c3.14,-1.12 5.94,-2.25 8.94,-3.47c1.14,2.29 2.56,4.25 3.12,6.43c1.61,6.16 6.45,11.61 4.24,18.63c0,0 -0.09,-0.01 -0.43,-0.09c-0.57,0.21 -0.8,0.5 -1.04,0.79c0,0 -0.01,-0.12 -0.34,-0.15c-1.78,1 -3.23,2.03 -4.68,3.06c0,0 -0.02,-0.09 -0.36,-0.09c-2.1,1.06 -3.86,2.13 -5.62,3.19c0,0 -0.01,-0.12 -0.28,-0.13c-0.77,0.35 -1.27,0.71 -1.76,1.07c0,0 0,-0.11 -0.36,-0.12c-1.95,0.36 -3.6,0.57 -5.1,1.14c-18.58,7.13 -37.43,10.25 -56.99,4.22c-1.16,-0.36 -2.55,0.05 -3.83,0.1c0,0 -0.14,0.08 -0.19,-0.3c-0.95,-0.62 -1.85,-0.87 -2.75,-1.11c0,0 0.09,-0.04 0.07,-0.36c-2.11,-1.3 -4.21,-2.29 -6.3,-3.29c0,0 0.25,-0.29 0.13,-0.47c-0.7,-0.42 -1.28,-0.67 -1.86,-0.92c0,0 0.08,-0.03 -0.03,-0.24c-0.43,-0.38 -0.75,-0.56 -1.06,-0.73c0,0 0.11,-0.01 0.11,-0.32c-1.69,-1.75 -3.39,-3.2 -5.09,-4.65c0,0 0.11,-0.03 0.02,-0.24c-0.38,-0.42 -0.67,-0.63 -0.96,-0.84c0,0 0.08,-0.01 0.09,-0.34c-0.71,-1.09 -1.42,-1.85 -2.14,-2.6c0,0 0.1,-0.03 0.12,-0.38c-0.03,-0.85 0.06,-1.4 -0.13,-1.82c-5.61,-12.34 -6.26,-25.4 -3.56,-38.24c2.23,-10.63 6.6,-20.81 10,-31.2c0.6,-1.85 1.12,-3.73 1.67,-5.59c0,0 0.05,0.08 0.37,0.05c1.4,-2.06 2.49,-4.08 3.59,-6.11c0,0 0.04,0.1 0.36,0.08c0.78,-1.04 1.24,-2.06 1.7,-3.08c-0.03,-0.32 0.09,-0.59 0.94,-0.86c0.94,-0.85 1.28,-1.62 1.62,-2.39c0,0 0.3,0.09 0.49,0.06c0.45,-0.6 0.7,-1.19 0.96,-1.78c0.43,-0.58 0.85,-1.16 1.91,-1.83c1.69,-1.52 2.75,-2.95 3.81,-4.37c0,0 0.28,0.2 0.5,0.19c1.73,-1.7 3.24,-3.4 4.75,-5.09m12.68,31.5c-0.17,0.31 -0.35,0.62 -0.54,0.78c0,0 0.15,0 -0.52,0.42c-1.59,4.34 0.4,5.63 4.5,5.6c11.73,-0.1 23.47,0.07 35.2,-0.16c2.24,-0.04 4.45,-1.43 6.89,-2.65c0.49,-0.45 0.98,-0.9 2.26,-1.55c2.59,-4.04 2.29,-10.06 -0.53,-13.61c0,0 -0.04,0.14 0.06,-0.61c-0.73,-1.12 -1.46,-2.24 -2.05,-3.37c0,0 -0.04,0.13 0,-0.58c-0.68,-0.49 -1.36,-0.98 -2.48,-1.56c-0.3,-0.14 -0.46,-0.38 -0.49,-1.47c-3.98,-4.06 -9.09,-4.66 -14.26,-4.08c-2.26,0.24 -4.36,1.94 -6.98,3.47c-6.12,5.41 -12.24,10.81 -19.11,16.23c-0.5,1 -0.99,2 -1.52,2.92c0,0 0.08,0.01 -0.43,0.22z" fill="red" id="svg_6" stroke="#f2e8e8" stroke-linejoin="round"/>
  <path d="m410.17,21.94c0,0 0.42,0 0.84,0.31c7.2,3.21 8.39,4.71 6.56,10.27c-1.9,5.77 -4.35,11.38 -6.92,16.88c-0.54,1.14 -2.76,2.25 -4.09,2.13c-5.27,-0.47 -10.58,-2.36 -15.71,-1.89c-3.49,0.32 -8.67,-2.36 -10.84,3.21c0,0 -0.37,0.22 -0.93,0.23c-1.03,0.42 -1.51,0.82 -1.99,1.22c-0.04,0.37 -0.24,0.6 -0.95,0.56c-0.43,0.1 -0.5,0.36 -0.58,0.61c0,0 -0.08,-0.01 -0.41,-0.06c-0.49,0.31 -0.65,0.67 -0.81,1.03c0,0 -0.07,-0.16 -0.31,-0.13c-0.37,0.41 -0.51,0.77 -0.66,1.14c0,0 -0.04,-0.19 -0.29,-0.13c-0.51,0.63 -0.76,1.21 -1.02,1.79c0,0 -0.04,-0.07 -0.36,-0.04c-2.45,5.03 -4.71,9.99 -6.62,15.07c-0.39,1.04 0.5,2.55 0.8,3.85c0.31,0.44 0.62,0.88 1.28,1.92c7.98,0.77 15.6,0.98 23.21,1.09c6.24,0.09 6.7,0.54 4.55,6.62c-2.41,6.84 -5.11,13.57 -7.73,20.48c-7.85,0 -15.43,-0.33 -22.97,0.1c-6,0.34 -7.66,0.22 -9.28,7.72c-0.91,4.2 -2.2,8.31 -3.18,12.49c-1.62,6.9 -3.14,13.83 -4.71,20.75c0,0 0,0.43 -0.42,0.72c-0.77,0.62 -1.32,0.91 -1.42,1.32c-2.2,8.43 -4.34,16.87 -6.51,25.31c-2.92,11.3 -5.92,22.58 -8.73,33.91c-0.71,2.83 -2.22,3.64 -4.98,3.61c-9.5,-0.11 -19,-0.01 -28.51,-0.04c-5.21,-0.02 -5.83,-0.93 -4.34,-5.98c4.6,-15.63 9.37,-31.21 13.72,-46.91c2.43,-8.74 4.13,-17.68 6.21,-26.53c1.61,-6.86 3.29,-13.71 4.91,-20.88c-0.43,-0.74 -0.82,-1.17 -1.22,-1.6c0,0 0.14,-0.01 0.14,-0.32c-0.92,-0.97 -1.89,-2.26 -2.75,-2.2c-6.4,0.46 -12.79,1.19 -19.83,1.9c1.55,-5.64 2.89,-11.34 4.69,-16.89c1.38,-4.27 3.33,-8.36 5.49,-12.54c6.28,-0.07 12.11,-0.01 17.92,-0.33c0.88,-0.05 1.66,-1.86 2.49,-2.86c0,0 0.02,0.09 0.36,0.05c1.13,-1.73 2.16,-3.36 2.68,-5.13c2.18,-7.34 4.16,-14.72 6.29,-22.07c0.77,-2.65 1.77,-5.24 2.66,-7.85c0,0 0.03,0.09 0.25,-0.03c0.33,-0.48 0.43,-0.84 0.54,-1.2c0,0 0.03,0.19 0.28,0.1c0.48,-0.69 0.69,-1.29 0.91,-1.89c0,0 0.04,0.09 0.36,0.06c0.57,-0.79 0.82,-1.55 1.06,-2.32c0,0 0.12,-0.18 0.36,-0.09c0.37,0.1 0.51,0.11 0.65,0.13c-0.14,-0.21 -0.27,-0.42 -0.4,-0.63c3.14,-2.95 6.28,-5.89 9.96,-8.64c0.85,0.29 1.24,0.58 1.45,0.48c9.06,-4.28 17.74,-9.27 28.54,-8.12c8.62,0.91 17.38,0.59 26.07,0.74c1.41,0.02 2.82,-0.33 4.24,-0.5z" fill="red" id="svg_7" stroke="#f2e8e8" stroke-linejoin="round"/>
  <path d="m8.14,211.03c1.3,-5.17 2.59,-10.34 4.45,-15.92c1.19,-1.72 2.03,-2.96 2.41,-4.33c2.24,-7.93 4.36,-15.89 6.54,-23.84c6.3,-22.95 12.63,-45.89 18.91,-68.84c1.28,-4.68 2.38,-9.4 3.71,-14.44c1.16,-1.36 2.09,-3.17 3.2,-3.29c11.19,-1.22 22.53,1.43 33.7,-1.28c0.99,-0.24 2.15,0.19 3.92,0.38c-2.73,9.05 -5.56,17.61 -7.86,26.32c-3.08,11.65 -5.74,23.41 -8.58,35.12c-2.19,9.03 -4.36,18.07 -6.83,27.33c-3.82,12.77 -7.53,25.26 -10.79,37.87c-1.13,4.36 -2.75,6.28 -7.64,6.02c-8.93,-0.48 -17.9,-0.05 -26.86,-0.17c-2.76,-0.04 -5.52,-0.61 -8.28,-0.93z" fill="red" id="svg_8" stroke="#f2e8e8" stroke-linejoin="round"/>
  <path d="m90.03,57.24c-7.44,7.53 -16.75,10.13 -26.76,8.4c-13.24,-2.28 -19.05,-18.91 -11.72,-31.77c3.14,-5.51 8.21,-8.45 14.46,-10.48c5.97,0.52 11.32,0.6 16.64,1.07c2.31,0.22 4.55,1.21 6.82,1.85c0,0 0.09,0.12 0.08,0.49c0.56,0.64 1.14,0.91 1.73,1.17c0.33,0.01 0.58,0.15 0.81,1c0.54,0.92 1.02,1.28 1.51,1.63c0,0 -0.35,0.13 -0.32,0.49c0.33,4.3 0.85,8.25 0.84,12.19c-0.01,3.31 -0.65,6.62 -1.01,9.93c0,0 -0.03,-0.09 -0.24,0c-0.41,0.4 -0.6,0.71 -0.79,1.01c0,0 -0.02,-0.12 -0.24,0.02c-0.42,0.72 -0.61,1.31 -0.79,1.89c0,0 -0.04,-0.06 -0.24,0.06c-0.39,0.43 -0.57,0.74 -0.75,1.05z" fill="red" id="svg_9" stroke="#f2e8e8" stroke-linejoin="round"/>
  <image height="0.63" id="svg_13" width="0" x="-69.37" xlink:href="./images/logo.svg" y="328.3"/>
  <image height="0" id="svg_12" width="0" x="-37.3" xlink:href="./images/logo.svg" y="23.27"/>
  <image height="0" id="svg_11" width="0" x="-40.44" xlink:href="./images/logo.svg" y="274.84"/>
  <use id="svg_18" transform="matrix(4.1536 0 0 4.1536 0 0)" x="0" xlink:href="#svg_17" y="0"/>
 </g>
 <defs>
  <symbol id="svg_17" viewBox="0 0 51.04 49.47" xmlns="http://www.w3.org/2000/svg">
   <defs>
    <style>.cls-1,.cls-2,.cls-3{fill:none;}.cls-2,.cls-3{stroke:#fff;stroke-miterlimit:10;}.cls-2{stroke-linecap:round;stroke-width:5px;}.cls-3{stroke-width:2px;}</style>
   </defs>
   <g data-name="Calque 2" id="svg_15">
    <g data-name="Calque 1" id="svg_16">
     <polyline class="cls-1" points="6.8 0 51.04 0 51.04 49.47 0 49.47 0 0 6.8 0"/>
     <line class="cls-2" x1="31.92" x2="41.34" y1="30.64" y2="40.61"/>
     <path class="cls-3" d="m33.77,20.34a11.49,11.49 0 1 1 -11.48,-11.48a11.46,11.46 0 0 1 11.48,11.48z"/>
    </g>
   </g>
  </symbol>
 </defs>
</svg>